HIERARCHY
ROOT hip
{
  OFFSET 0 0 0
  CHANNELS 6 Xposition Yposition Zposition Zrotation Yrotation Xrotation
  JOINT abdomen
  {
    OFFSET 0 20.6881 -0.73152
    CHANNELS 3 Zrotation Xrotation Yrotation
    JOINT chest
    {
      OFFSET 0 11.7043 -0.48768
      CHANNELS 3 Zrotation Xrotation Yrotation
      JOINT neck
      {
        OFFSET 0 22.1894 -2.19456
        CHANNELS 3 Zrotation Xrotation Yrotation
        JOINT head
        {
          OFFSET -0.24384 7.07133 1.2192
          CHANNELS 3 Zrotation Xrotation Yrotation
          JOINT leftEye
          {
            OFFSET 4.14528 8.04674 8.04672
            CHANNELS 3 Zrotation Xrotation Yrotation
            End Site
            {
              OFFSET 1 0 0
            }
          }
          JOINT rightEye
          {
            OFFSET -3.6576 8.04674 8.04672
            CHANNELS 3 Zrotation Xrotation Yrotation
            End Site
            {
              OFFSET 1 0 0
            }
          }
        }
      }
      JOINT rCollar
      {
        OFFSET -2.68224 19.2634 -4.8768
        CHANNELS 3 Zrotation Xrotation Yrotation
        JOINT rShldr
        {
          OFFSET -8.77824 -1.95073 1.46304
          CHANNELS 3 Zrotation Xrotation Yrotation
          JOINT rForeArm
          {
            OFFSET -28.1742 -1.7115 0.48768
            CHANNELS 3 Zrotation Xrotation Yrotation
            JOINT rHand
            {
              OFFSET -22.5879 0.773209 7.07136
              CHANNELS 3 Zrotation Xrotation Yrotation
              JOINT rThumb1
              {
                OFFSET -1.2192 -0.487915 3.41376
                CHANNELS 3 Zrotation Xrotation Yrotation
                JOINT rThumb2
                {
                  OFFSET -3.37035 -0.52449 3.41376
                  CHANNELS 3 Zrotation Xrotation Yrotation
                  End Site
                  {
                    OFFSET -1.78271 -1.18214 1.43049
                  }
                }
              }
              JOINT rIndex1
              {
                OFFSET -7.75947 0.938293 5.60832
                CHANNELS 3 Zrotation Xrotation Yrotation
                JOINT rIndex2
                {
                  OFFSET -2.54057 -0.884171 1.56538
                  CHANNELS 3 Zrotation Xrotation Yrotation
                  End Site
                  {
                    OFFSET -1.62519 -0.234802 1.16502
                  }
                }
              }
              JOINT rMid1
              {
                OFFSET -8.24714 1.18213 3.41376
                CHANNELS 3 Zrotation Xrotation Yrotation
                JOINT rMid2
                {
                  OFFSET -3.10165 -0.590103 1.0647
                  CHANNELS 3 Zrotation Xrotation Yrotation
                  End Site
                  {
                    OFFSET -2.48547 -0.328903 0.83742
                  }
                }
              }
              JOINT rRing1
              {
                OFFSET -8.82822 0.546677 1.51678
                CHANNELS 3 Zrotation Xrotation Yrotation
                JOINT rRing2
                {
                  OFFSET -2.60934 -0.819778 -0.0198488
                  CHANNELS 3 Zrotation Xrotation Yrotation
                  End Site
                  {
                    OFFSET -2.33842 -0.294052 0.168128
                  }
                }
              }
              JOINT rPinky1
              {
                OFFSET -8.27202 -0.0477905 -0.4584
                CHANNELS 3 Zrotation Xrotation Yrotation
                JOINT rPinky2
                {
                  OFFSET -1.82734 -0.647385 -0.700984
                  CHANNELS 3 Zrotation Xrotation Yrotation
                  End Site
                  {
                    OFFSET -1.69225 -0.51767 -0.607171
                  }
                }
              }
            }
          }
        }
      }
      JOINT lCollar
      {
        OFFSET 2.68224 19.2634 -4.8768
        CHANNELS 3 Zrotation Xrotation Yrotation
        JOINT lShldr
        {
          OFFSET 8.77824 -1.95073 1.46304
          CHANNELS 3 Zrotation Xrotation Yrotation
          JOINT lForeArm
          {
            OFFSET 28.1742 -1.7115 0.48768
            CHANNELS 3 Zrotation Xrotation Yrotation
            JOINT lHand
            {
              OFFSET 22.5879 0.773209 7.07136
              CHANNELS 3 Zrotation Xrotation Yrotation
              JOINT lThumb1
              {
                OFFSET 1.2192 -0.487915 3.41376
                CHANNELS 3 Zrotation Xrotation Yrotation
                JOINT lThumb2
                {
                  OFFSET 3.37035 -0.52449 3.41376
                  CHANNELS 3 Zrotation Xrotation Yrotation
                  End Site
                  {
                    OFFSET 1.78271 -1.18214 1.43049
                  }
                }
              }
              JOINT lIndex1
              {
                OFFSET 7.75947 0.938293 5.60832
                CHANNELS 3 Zrotation Xrotation Yrotation
                JOINT lIndex2
                {
                  OFFSET 2.54057 -0.884171 1.56538
                  CHANNELS 3 Zrotation Xrotation Yrotation
                  End Site
                  {
                    OFFSET 1.62519 -0.234802 1.16502
                  }
                }
              }
              JOINT lMid1
              {
                OFFSET 8.24714 1.18213 3.41376
                CHANNELS 3 Zrotation Xrotation Yrotation
                JOINT lMid2
                {
                  OFFSET 3.10165 -0.590103 1.0647
                  CHANNELS 3 Zrotation Xrotation Yrotation
                  End Site
                  {
                    OFFSET 2.48547 -0.328903 0.83742
                  }
                }
              }
              JOINT lRing1
              {
                OFFSET 8.82822 0.546677 1.51678
                CHANNELS 3 Zrotation Xrotation Yrotation
                JOINT lRing2
                {
                  OFFSET 2.60934 -0.819778 -0.0198488
                  CHANNELS 3 Zrotation Xrotation Yrotation
                  End Site
                  {
                    OFFSET 2.33842 -0.294052 0.168128
                  }
                }
              }
              JOINT lPinky1
              {
                OFFSET 8.27202 -0.0477905 -0.4584
                CHANNELS 3 Zrotation Xrotation Yrotation
                JOINT lPinky2
                {
                  OFFSET 1.82734 -0.647385 -0.700984
                  CHANNELS 3 Zrotation Xrotation Yrotation
                  End Site
                  {
                    OFFSET 1.69225 -0.51767 -0.607171
                  }
                }
              }
            }
          }
        }
      }
    }
  }
  JOINT rButtock
  {
    OFFSET -8.77824 4.35084 1.2192
    CHANNELS 3 Zrotation Xrotation Yrotation
    JOINT rThigh
    {
      OFFSET 0 -1.70687 -2.19456
      CHANNELS 3 Zrotation Xrotation Yrotation
      JOINT rShin
      {
        OFFSET 0 -36.8199 0.73152
        CHANNELS 3 Zrotation Xrotation Yrotation
        JOINT rFoot
        {
          OFFSET 0.73152 -45.1104 -5.12064
          CHANNELS 3 Zrotation Xrotation Yrotation
          End Site
          {
            OFFSET -1.1221 -3.69964 12.103
          }
        }
      }
    }
  }
  JOINT lButtock
  {
    OFFSET 8.77824 4.35084 1.2192
    CHANNELS 3 Zrotation Xrotation Yrotation
    JOINT lThigh
    {
      OFFSET 0 -1.70687 -2.19456
      CHANNELS 3 Zrotation Xrotation Yrotation
      JOINT lShin
      {
        OFFSET 0 -36.8199 0.73152
        CHANNELS 3 Zrotation Xrotation Yrotation
        JOINT lFoot
        {
          OFFSET -0.73152 -45.1104 -5.12064
          CHANNELS 3 Zrotation Xrotation Yrotation
          End Site
          {
            OFFSET 1.1221 -3.69964 12.103
          }
        }
      }
    }
  }
}
MOTION
Frames:	4
Frame Time:	0.03333
-0.06600000197067857 60.38320064544678 1.7750000581145287 -8.83190631866455 -1.522172212600708 7.3574981689453125 -6.153268814086914 6.918779373168945 16.620107650756836 2.189213275909424 -8.62955379486084 4.5069098472595215 -5.985093593597412 12.402080535888672 -7.013528347015381 14.037785530090332 -23.499101638793945 -10.627201080322266 -0.0 0.0 -0.0 -0.0 0.0 -0.0 -0.0 0.0 -0.0 39.9152946472168 30.693696975708008 22.023399353027344 -26.689998626708984 -44.79469299316406 93.04527282714844 -0.5321913361549377 20.275537490844727 2.9756922721862793 -0.0 0.0 -0.0 -0.0 0.0 -0.0 -0.0 0.0 -0.0 7.730876445770264 5.474894046783447 0.41732466220855713 -0.0 0.0 -0.0 2.9054994583129883 0.9650753736495972 0.10300876200199127 -0.0 0.0 -0.0 10.278595924377441 0.7317469120025635 0.026285571977496147 -0.0 0.0 -0.0 2.221662998199463 -0.7335850596427917 -0.20831838250160217 -0.0 0.0 -0.0 -64.04530334472656 25.96540069580078 3.280705213546753 28.43329620361328 -35.585208892822266 -76.31620025634766 0.030710605904459953 -4.996049404144287 0.7039365172386169 -0.0 0.0 -0.0 -0.0 0.0 -0.0 -0.0 0.0 -0.0 -7.730876445770264 5.474894046783447 -0.41732466220855713 -0.0 0.0 -0.0 -2.9054994583129883 0.9650753736495972 -0.10300876200199127 -0.0 0.0 -0.0 -10.278595924377441 0.7317469120025635 -0.026285571977496147 -0.0 0.0 -0.0 -2.221662998199463 -0.7335850596427917 0.20831838250160217 -0.0 0.0 -0.0 -12.151299476623535 -13.206790924072266 -11.743599891662598 -12.242586135864258 85.99742126464844 13.887988090515137 1.9826480150222778 -10.453487396240234 9.667677879333496 -0.0 0.0 -0.0 24.855501174926758 -62.76970672607422 26.561309814453125 2.638031482696533 72.05078887939453 -2.4084668159484863 5.179662704467773 -8.174592018127441 18.768795013427734
-0.22060000337660313 61.53849959373474 3.784000128507614 -8.703400611877441 0.9113441109657288 6.172094821929932 -7.641574859619141 7.570720195770264 16.051294326782227 2.3798975944519043 -8.705069541931152 4.351129531860352 -5.943811416625977 12.879304885864258 -7.461994171142578 15.062604904174805 -23.714797973632812 -11.328595161437988 -0.0 0.0 -0.0 -0.0 0.0 -0.0 -0.0 0.0 -0.0 42.001895904541016 29.58080291748047 18.267696380615234 -26.72440528869629 -44.708492279052734 92.87519073486328 -0.4175012409687042 18.061439514160156 2.626434087753296 -0.0 0.0 -0.0 -0.0 0.0 -0.0 -0.0 0.0 -0.0 7.730876445770264 5.474894046783447 0.41732466220855713 -0.0 0.0 -0.0 2.9054994583129883 0.9650753736495972 0.10300876200199127 -0.0 0.0 -0.0 10.278595924377441 0.7317469120025635 0.026285571977496147 -0.0 0.0 -0.0 2.221662998199463 -0.7335850596427917 -0.20831838250160217 -0.0 0.0 -0.0 -61.277503967285156 25.343088150024414 2.771451234817505 28.427698135375977 -35.13389205932617 -75.5707015991211 0.014647400006651878 -3.453742742538452 0.4858352839946747 -0.0 0.0 -0.0 -0.0 0.0 -0.0 -0.0 0.0 -0.0 -7.730876445770264 5.474894046783447 -0.41732466220855713 -0.0 0.0 -0.0 -2.9054994583129883 0.9650753736495972 -0.10300876200199127 -0.0 0.0 -0.0 -10.278595924377441 0.7317469120025635 -0.026285571977496147 -0.0 0.0 -0.0 -2.221662998199463 -0.7335850596427917 0.20831838250160217 -0.0 0.0 -0.0 -15.634297370910645 -19.183198928833008 -15.229507446289062 -165.94815063476562 85.89209747314453 167.6250762939453 0.9975983500480652 -10.984121322631836 3.4293856620788574 -0.0 0.0 -0.0 19.378259658813477 -60.06609344482422 21.088979721069336 2.2614026069641113 70.09000396728516 -2.0855603218078613 5.0348358154296875 -8.644789695739746 18.34259605407715
-0.46369999181479216 62.891197204589844 5.923000164330006 -9.220873832702637 3.3211960792541504 4.638491153717041 -8.348132133483887 8.469783782958984 15.353405952453613 2.6477396488189697 -8.72731876373291 4.173360824584961 -5.969264030456543 13.36510181427002 -7.778729438781738 15.840302467346191 -23.813295364379883 -11.824899673461914 -0.0 0.0 -0.0 -0.0 0.0 -0.0 -0.0 0.0 -0.0 44.1675910949707 28.327295303344727 14.274800300598145 -26.83789825439453 -44.42570114135742 92.30879211425781 -0.3548313081264496 16.70102310180664 2.417008399963379 -0.0 0.0 -0.0 -0.0 0.0 -0.0 -0.0 0.0 -0.0 7.730876445770264 5.474894046783447 0.41732466220855713 -0.0 0.0 -0.0 2.9054994583129883 0.9650753736495972 0.10300876200199127 -0.0 0.0 -0.0 10.278595924377441 0.7317469120025635 0.026285571977496147 -0.0 0.0 -0.0 2.221662998199463 -0.7335850596427917 -0.20831838250160217 -0.0 0.0 -0.0 -58.55329513549805 24.507905960083008 1.3413894176483154 28.414295196533203 -34.6129035949707 -74.70360565185547 0.004984913393855095 -2.0156164169311523 0.28337183594703674 -0.0 0.0 -0.0 -0.0 0.0 -0.0 -0.0 0.0 -0.0 -7.730876445770264 5.474894046783447 -0.41732466220855713 -0.0 0.0 -0.0 -2.9054994583129883 0.9650753736495972 -0.10300876200199127 -0.0 0.0 -0.0 -10.278595924377441 0.7317469120025635 -0.026285571977496147 -0.0 0.0 -0.0 -2.221662998199463 -0.7335850596427917 0.20831838250160217 -0.0 0.0 -0.0 -19.54079246520996 -25.436697006225586 -18.725088119506836 -174.0186309814453 79.30286407470703 175.77159118652344 0.14536985754966736 -11.011899948120117 -1.396870493888855 -0.0 0.0 -0.0 15.593966484069824 -56.648712158203125 16.515668869018555 1.9284812211990356 68.00708770751953 -1.8803215026855469 4.838841438293457 -9.238064765930176 17.812204360961914
-0.7890000008046627 64.32330012321472 8.157000131905079 -10.120211601257324 5.739989280700684 2.792816162109375 -8.257820129394531 9.619043350219727 14.526996612548828 2.992957830429077 -8.696176528930664 3.9736433029174805 -6.0648322105407715 13.860394477844238 -7.963068008422852 16.37569808959961 -23.79739761352539 -12.114402770996094 -0.0 0.0 -0.0 -0.0 0.0 -0.0 -0.0 0.0 -0.0 46.37350082397461 26.917402267456055 10.06019401550293 -27.014402389526367 -43.934600830078125 91.36919403076172 -0.3473159074783325 16.194908142089844 2.341498374938965 -0.0 0.0 -0.0 -0.0 0.0 -0.0 -0.0 0.0 -0.0 7.730876445770264 5.474894046783447 0.41732466220855713 -0.0 0.0 -0.0 2.9054994583129883 0.9650753736495972 0.10300876200199127 -0.0 0.0 -0.0 10.278595924377441 0.7317469120025635 0.026285571977496147 -0.0 0.0 -0.0 2.221662998199463 -0.7335850596427917 -0.20831838250160217 -0.0 0.0 -0.0 -55.93498229980469 23.43389129638672 -0.9839755892753601 28.385194778442383 -34.01339340209961 -73.7251968383789 0.0005645541241392493 -0.6818491816520691 0.09487781673669815 -0.0 0.0 -0.0 -0.0 0.0 -0.0 -0.0 0.0 -0.0 -7.730876445770264 5.474894046783447 -0.41732466220855713 -0.0 0.0 -0.0 -2.9054994583129883 0.9650753736495972 -0.10300876200199127 -0.0 0.0 -0.0 -10.278595924377441 0.7317469120025635 -0.026285571977496147 -0.0 0.0 -0.0 -2.221662998199463 -0.7335850596427917 0.20831838250160217 -0.0 0.0 -0.0 -23.952198028564453 -31.93669891357422 -22.427291870117188 -175.6978302001953 73.90459442138672 177.5699005126953 -0.4689154028892517 -10.599663734436035 -4.789618492126465 -0.0 0.0 -0.0 13.48616886138916 -52.57219314575195 12.819990158081055 1.6097947359085083 65.80248260498047 -1.76499342918396 4.5850419998168945 -9.955991744995117 17.177797317504883
